<svg width="56" height="56" viewBox="0 0 56 56" fill="none" xmlns="http://www.w3.org/2000/svg">
<rect width="56" height="56" fill="#DC2228" fill-opacity="0.85"/>
<g clip-path="url(#clip0_564_2363)">
<path d="M39.2348 27.6535L16.8286 16.4195C16.7375 16.374 16.633 16.3633 16.5339 16.3874C16.4239 16.4146 16.3292 16.4843 16.2704 16.5811C16.2117 16.678 16.1938 16.7943 16.2205 16.9044L18.5295 26.3383C18.5643 26.4803 18.6687 26.5954 18.808 26.641L22.7643 27.999L18.8107 29.357C18.6714 29.4053 18.567 29.5178 18.5348 29.6597L16.2205 39.107C16.1964 39.2061 16.2071 39.3106 16.2527 39.399C16.3571 39.6106 16.6143 39.6963 16.8286 39.5919L39.2348 28.4222C39.3178 28.382 39.3848 28.3124 39.4277 28.232C39.5321 28.0178 39.4464 27.7606 39.2348 27.6535ZM18.8616 36.4231L20.2089 30.916L28.1161 28.2026C28.1777 28.1811 28.2286 28.1329 28.25 28.0686C28.2875 27.9561 28.2286 27.8356 28.1161 27.7954L20.2089 25.0847L18.867 19.599L35.6884 28.0338L18.8616 36.4231Z" fill="white"/>
</g>
<defs>
<clipPath id="clip0_564_2363">
<rect width="24" height="24" fill="white" transform="translate(16 16)"/>
</clipPath>
</defs>
</svg>
